inDegrees=no
num_controls=7
num_derivatives=13
num_iterations=91
num_multipliers=7
num_parameters=0
num_slacks=7
num_states=26
objective=0.435745
objective_accelerations=0.039386
objective_balance=0.006040
objective_effort=0.028199
objective_height=0.360889
objective_ligament=0.001231
solver_duration=1161.698621
status=Solve_Succeeded
success=true
DataType=double
version=3
OpenSimVersion=4.5
endheader
time	/jointset/ground_pelvis/pelvis_tilt/value	/jointset/ground_pelvis/pelvis_tx/value	/jointset/ground_pelvis/pelvis_ty/value	/jointset/hip_l/hip_flexion_l/value	/jointset/hip_l/hip_adduction_l/value	/jointset/hip_l/hip_rotation_l/value	/jointset/back/lumbar_extension/value	/jointset/patellofemoral_l/patellar_flexion_l/value	/jointset/knee_l/knee_flexion_l/value	/jointset/knee_l/knee_adduction_l/value	/jointset/knee_l/knee_rotation_l/value	/jointset/ankle_l/ankle_angle_l/value	/jointset/subtalar_l/subtalar_angle_l/value	/jointset/ground_pelvis/pelvis_tilt/speed	/jointset/ground_pelvis/pelvis_tx/speed	/jointset/ground_pelvis/pelvis_ty/speed	/jointset/hip_l/hip_flexion_l/speed	/jointset/hip_l/hip_adduction_l/speed	/jointset/hip_l/hip_rotation_l/speed	/jointset/back/lumbar_extension/speed	/jointset/patellofemoral_l/patellar_flexion_l/speed	/jointset/knee_l/knee_flexion_l/speed	/jointset/knee_l/knee_adduction_l/speed	/jointset/knee_l/knee_rotation_l/speed	/jointset/ankle_l/ankle_angle_l/speed	/jointset/subtalar_l/subtalar_angle_l/speed	/forceset/tau_hip_flexion_l	/forceset/tau_hip_adduction_l	/forceset/tau_hip_rotation_l	/forceset/tau_knee_flexion_l	/forceset/tau_ankle_angle_l	/forceset/tau_subtalar_angle_l	/forceset/tau_lumbar_extension	lambda_cid13_p0	lambda_cid13_p1	lambda_cid13_p2	lambda_cid13_p3	lambda_cid13_p4	lambda_cid13_p5	lambda_cid14_p0	/jointset/ground_pelvis/pelvis_tilt/accel	/jointset/ground_pelvis/pelvis_tx/accel	/jointset/ground_pelvis/pelvis_ty/accel	/jointset/hip_l/hip_flexion_l/accel	/jointset/hip_l/hip_adduction_l/accel	/jointset/hip_l/hip_rotation_l/accel	/jointset/back/lumbar_extension/accel	/jointset/patellofemoral_l/patellar_flexion_l/accel	/jointset/knee_l/knee_flexion_l/accel	/jointset/knee_l/knee_adduction_l/accel	/jointset/knee_l/knee_rotation_l/accel	/jointset/ankle_l/ankle_angle_l/accel	/jointset/subtalar_l/subtalar_angle_l/accel	gamma_cid13_p0	gamma_cid13_p1	gamma_cid13_p2	gamma_cid13_p3	gamma_cid13_p4	gamma_cid13_p5	gamma_cid14_p0
0.5	-0.1834044712567188	0.01983716366228541	0.7997903330045802	0.9120367067651504	-0.3011184910051863	0.002744918731610634	-0.293166885503943	0.786523572184414	0.7865235721844147	-0.1683662488006876	0.1641092847830332	0.243360656740616	0.003303634796598458	-0.05876515070275017	-0.0742724127439939	-0.4007952352406029	1.472568618505698	0.002996535528070812	0.6665518509945831	-0.6254098267985222	2.028947232725382	2.028947232725371	-0.007430366705598978	0.03686417598511044	0.7402478593844741	0.1477220171774107	-0.09772535815153763	0.03429308985880763	-0.03121675912031013	-0.3004960664241496	0.07453013249451244	0.0261542329706113	0.1275882440173034	-14.38166291473917	-11.16698635547988	4.035130227198265	5.13291502213552	-604.9456003649441	-53.11453476169493	-22.29454385867547	0.04573305755860842	0.1947208226482899	-0.4412078518040021	-0.6707726595785045	0.5310492411745937	-0.4610724316775597	1.086840313620097	-1.349789914450225	-1.349789914450234	-0.04153301514490483	-0.04117169236451288	-0.794660417990833	0.5748404377885804	-3.753266948516983e-07	-1.599726304169062e-07	2.426846499033855e-06	2.634620447872988e-07	-4.352125765984638e-07	-7.189198326294871e-07	-3.356371602766712e-07
0.51	-0.1839896415549971	0.01910428341247386	0.7957612031223287	0.9267263325388317	-0.3010632469817013	0.009388367165581482	-0.2993659498094234	0.8067421041968443	0.8067421041968447	-0.1684456001946895	0.1644755024927669	0.2507218459595652	0.004807976574906728	-0.05826595372123583	-0.07229678762506704	-0.4049403431135649	1.465150304745586	0.00801773152150166	0.6620031612240362	-0.6143208509014384	2.014472884688621	2.014472884688622	-0.008407163254939658	0.03642323756770963	0.7318731068333069	0.1531071424793351	-0.101198811203014	0.03488500833483407	-0.03133401192279431	-0.304550644870808	0.07231198123204123	0.02639672396385075	0.1310237573979609	-15.25789134609858	-10.99482884221832	3.865987403028586	5.528337773578856	-608.2858438994191	-52.99296685763476	-21.06846002803001	0.052429893644323	0.2000627930765164	-0.3876862263595027	-0.8083326385228161	0.4821091882772995	-0.4722544539083603	1.132253737170643	-1.539135306674709	-1.539135306674204	-0.1207627133075834	-0.03941754195899556	-0.8763993729763966	0.5142096653921722	-3.42957565802309e-07	-5.046575766715322e-08	2.286687547177591e-06	2.575392207164257e-07	-4.041504281445766e-07	-5.763964272857018e-07	-3.108433258943606e-07
0.52	-0.1845697365084208	0.01839137530116394	0.7916933173670839	0.941335580794053	-0.3009589001163103	0.01598223126101381	-0.3054516588540493	0.8268073171172299	0.8268073171172295	-0.1685337215018762	0.1648385382932206	0.2579957843131435	0.0063649418240338	-0.0577500817318624	-0.07027798504367444	-0.408546409839215	1.45649311481368	0.01281710390925561	0.6566349832868846	-0.6027387746276297	1.998283414316432	1.998283414316429	-0.009184349342534891	0.0362277941290831	0.7227976863102709	0.1582467113411716	-0.1046722642544903	0.03547692681086042	-0.03145126472527784	-0.3086052233174665	0.07009382996956996	0.02663921495709007	0.1344592707786185	-16.13979871501608	-10.82308202231382	3.698517192635577	5.918081721101118	-611.7211043531187	-52.94407787330704	-19.84055652218255	0.04906805913042753	0.2033563151414358	-0.3333996223416258	-0.9185478939354694	0.4866845200392137	-0.6249700649985113	1.185460388965081	-1.692814381535838	-1.692814381535841	-0.001610922795816427	0.00792730339229944	-0.9347940123645704	0.5257291497710023	-3.129815948018073e-07	6.786305725837742e-08	2.140401389929207e-06	2.525919491513157e-07	-3.753024874403928e-07	-4.390387354714054e-07	-2.852472009367957e-07
0.53	-0.1851447760638159	0.0176988639976924	0.7875921061023509	0.9558522605070989	-0.3008078436635829	0.02251942216625425	-0.3114188979133082	0.8467020013846436	0.8467020013846434	-0.1686295490568482	0.1652002596886946	0.2651754866686041	0.00797179872923709	-0.05726965673861579	-0.06821770666050664	-0.4116008254555414	1.446644642566268	0.01732604433596562	0.6507869361243533	-0.5906124455305179	1.98035103295919	1.98035103295919	-0.0100797991097497	0.03611156021758283	0.7130203823781346	0.1630359481519609	-0.1080926294292103	0.03589459057739177	-0.03149163660951496	-0.3128354027344806	0.06811291750389435	0.02677477796798612	0.1378798296853378	-16.95709638749275	-10.60796157597784	3.514709406565405	6.275094909233229	-615.2791079406078	-52.85986337151125	-18.61327565909685	0.04573477660404767	0.2083989470988163	-0.2772819135068552	-1.047755110827382	0.4224415233391841	-0.5673908161369071	1.240707924124866	-1.888756583333965	-1.888756583333755	-0.1482188036362065	-0.02253085190789106	-1.017538683698697	0.4419498486136058	-2.817479838616402e-07	1.549830437852806e-07	2.00562036631289e-06	2.454516858613591e-07	-3.464410664001747e-07	-3.21059445954291e-07	-2.616282455146038e-07
0.54	-0.1857153703578419	0.01702716254749173	0.7834631868050088	0.9702645038535341	-0.300613809262718	0.02899759884501815	-0.3172619759307878	0.8664083005243819	0.8664083005243819	-0.1687372724694825	0.1655605923223563	0.2722537479647312	0.009623833782924416	-0.05686102945807844	-0.06611601438950297	-0.4140880163610156	1.435605841491524	0.02141269353676716	0.6448321379915617	-0.5779065662717806	1.960606388781314	1.960606388781313	-0.0115635208750402	0.03595004176661199	0.7025094744435765	0.1672823410379789	-0.11151299460393	0.03631225434392361	-0.03153200849375414	-0.3170655821514944	0.06613200503821803	0.02691034097888283	0.1413003885920572	-17.78106157500556	-10.39252248965737	3.331822072900116	6.631746147519356	-618.9412338559364	-52.84076398577957	-17.38949166234153	0.03470851658858002	0.2116390927086108	-0.2199546801711582	-1.156613659401799	0.4022262748575208	-0.6463202590507748	1.301370421290177	-2.055266945663786	-2.055266945663767	-0.1192653224109565	-0.001129604502068005	-1.081514812848945	0.4171603648167547	-2.491229414988647e-07	2.075741137860423e-07	1.883568426715028e-06	2.35885133854551e-07	-3.175647309456206e-07	-2.245200908936335e-07	-2.401967968123993e-07
0.55	-0.1862821036836041	0.0163766413011134	0.7793122862992761	0.9845605598799894	-0.3003802401856017	0.03541414086503058	-0.3229754416536453	0.8859086785776503	0.88590867857765	-0.1688602385651551	0.1659194896299194	0.2792236684927583	0.01131664306048588	-0.05648195786090912	-0.06398531959339214	-0.4159917289224088	1.423411627434114	0.02529585768298327	0.638309438957786	-0.5647253099562957	1.939213933897731	1.939213933897719	-0.01289639281422556	0.03585280291232166	0.6913889523489305	0.171276844603067	-0.1148142066009449	0.03670513272876138	-0.03153132828456515	-0.3213668937972396	0.0643335571113005	0.02694170639546991	0.1446027951359527	-18.54903194469556	-10.13331307963277	3.132449441152392	6.957409119354747	-622.5807965495164	-52.78444151069153	-16.1727823153259	0.0400448893945233	0.2142681003821406	-0.1605865274544729	-1.279907313527053	0.3802697577694477	-0.6804610700553468	1.335693488191071	-2.219482254519348	-2.219482254520558	-0.1202191463480783	-0.01086581436655468	-1.140147147479641	0.3899435070692555	-2.215764789137086e-07	2.867080159187176e-07	1.752590828345875e-06	2.292615472971424e-07	-2.927623850769427e-07	-1.185401220658789e-07	-2.181203980396987e-07
